<svg width="287" height="46" viewBox="0 0 287 46" fill="none" xmlns="http://www.w3.org/2000/svg">
<path d="M93.55 35.548H58.671V40.886H93.55V35.548Z" fill="#1C1B22"/>
<path d="M78.926 10.407H73.296V31.545H78.926V10.407Z" fill="#0087CD"/>
<path d="M88.558 10.407H82.928V31.545H88.558V10.407Z" fill="#00704A"/>
<path d="M69.293 10.407H63.663V31.545H69.293V10.407Z" fill="#9E1C33"/>
<path d="M93.556 1.06699H58.664V6.40499H93.556V1.06699Z" fill="#1C1B22"/>
<mask id="mask0_3_84" style="mask-type:luminance" maskUnits="userSpaceOnUse" x="0" y="0" width="287" height="46">
<path d="M286.443 0H0V45.763H286.443V0Z" fill="white"/>
</mask>
<g mask="url(#mask0_3_84)">
<path d="M121.601 0.98999V11.084C121.601 15.599 119.115 18.207 114.744 18.207C110.373 18.207 107.862 15.624 107.862 11.084V0.98999H111.194V11.084C111.194 13.764 112.376 15.116 114.744 15.116C117.085 15.116 118.269 13.765 118.269 11.084V0.98999H121.601Z" fill="#1C1B22"/>
<path d="M133.986 9.94801V17.892H130.823V10.626C130.823 9.15301 130.244 8.42601 129.084 8.42601C127.805 8.42601 126.912 9.48801 126.912 11.42V17.891H123.793V5.65001H126.473L126.714 7.24301C127.024 6.64449 127.502 6.14965 128.09 5.81936C128.677 5.48907 129.349 5.33775 130.021 5.38401C132.606 5.38401 133.982 7.12301 133.982 9.94801" fill="#1C1B22"/>
<path d="M139.657 2.05301C139.667 2.43235 139.563 2.80599 139.359 3.12616C139.156 3.44633 138.861 3.69849 138.514 3.85042C138.166 4.00234 137.781 4.04713 137.407 3.97906C137.034 3.91098 136.689 3.73314 136.418 3.46825C136.146 3.20337 135.959 2.86348 135.882 2.49202C135.804 2.12056 135.839 1.73441 135.982 1.38293C136.125 1.03144 136.37 0.730576 136.685 0.518795C137 0.307015 137.371 0.193935 137.75 0.194009C138.249 0.188133 138.731 0.380544 139.088 0.729042C139.446 1.07754 139.65 1.55367 139.657 2.05301ZM139.32 17.892H136.181V5.65001H139.32V17.892Z" fill="#1C1B22"/>
<path d="M152.793 5.64999L148.35 17.892H145.162L140.743 5.64999H144.124L146.515 13.159L146.756 14.222L146.998 13.159L149.393 5.64999H152.793Z" fill="#1C1B22"/>
<path d="M165.298 11.759V12.726H156.774C156.778 13.103 156.858 13.4753 157.009 13.8204C157.161 14.1655 157.382 14.4761 157.657 14.7335C157.933 14.9909 158.258 15.1895 158.612 15.3175C158.967 15.4455 159.344 15.5001 159.72 15.478C160.23 15.5433 160.747 15.4393 161.192 15.1818C161.637 14.9243 161.985 14.5277 162.183 14.053H165.226C164.928 15.288 164.202 16.3775 163.176 17.128C162.151 17.8786 160.893 18.2417 159.626 18.153C158.809 18.1846 157.995 18.0463 157.234 17.747C156.473 17.4476 155.783 16.9938 155.207 16.414C154.065 15.1474 153.467 13.4827 153.541 11.779C153.507 10.9406 153.638 10.1037 153.928 9.31638C154.218 8.52902 154.661 7.80673 155.231 7.19101C155.791 6.59257 156.474 6.12125 157.232 5.80884C157.99 5.49643 158.806 5.3502 159.625 5.38001C163.006 5.38001 165.3 7.58001 165.3 11.754M162.137 10.547C162.154 10.2048 162.098 9.86295 161.974 9.54364C161.85 9.22433 161.66 8.93473 161.416 8.69371C161.173 8.45269 160.882 8.26564 160.561 8.14474C160.24 8.02385 159.898 7.97181 159.556 7.99201C158.853 7.97243 158.171 8.22983 157.656 8.70871C157.141 9.1876 156.835 9.84961 156.804 10.552L162.137 10.547Z" fill="#1C1B22"/>
<path d="M173.554 8.66801C172.683 8.63031 171.824 8.88517 171.115 9.39201C170.794 9.67454 170.538 10.0244 170.367 10.4167C170.196 10.809 170.113 11.2342 170.125 11.662V17.892H166.986V5.64801H169.686L169.977 7.60401C170.435 6.37201 171.619 5.52701 173.55 5.52701L173.554 8.66801Z" fill="#1C1B22"/>
<path d="M184.225 9.248H181.11C181.133 9.05872 181.112 8.86681 181.049 8.68671C180.987 8.5066 180.885 8.343 180.75 8.20822C180.615 8.07344 180.451 7.971 180.271 7.9086C180.091 7.84621 179.899 7.82548 179.71 7.848C178.842 7.848 178.359 8.306 178.359 9.055C178.359 9.828 178.842 10.165 180.508 10.455C183.408 10.938 184.492 12.122 184.492 14.173C184.492 16.805 182.492 18.157 179.759 18.157C176.789 18.157 175.051 16.612 174.979 14.173H178.07C178.094 15.163 178.697 15.673 179.832 15.673C180.797 15.673 181.352 15.263 181.352 14.514C181.352 13.714 180.87 13.307 179.131 12.993C176.451 12.535 175.219 11.376 175.219 9.371C175.203 8.84305 175.301 8.31787 175.505 7.83076C175.709 7.34366 176.016 6.90593 176.403 6.547C176.854 6.14328 177.381 5.83292 177.953 5.63383C178.525 5.43474 179.131 5.35084 179.735 5.387C182.318 5.387 184.129 6.933 184.226 9.251" fill="#1C1B22"/>
<path d="M189.97 2.05301C189.98 2.43223 189.876 2.80574 189.673 3.12584C189.469 3.44594 189.175 3.6981 188.827 3.85012C188.48 4.00213 188.095 4.04709 187.721 3.97926C187.348 3.91142 187.004 3.73388 186.732 3.4693C186.46 3.20472 186.273 2.86511 186.195 2.49385C186.117 2.1226 186.152 1.73655 186.294 1.38501C186.437 1.03347 186.681 0.732402 186.996 0.52026C187.31 0.308118 187.681 0.194532 188.06 0.194009C188.559 0.188133 189.041 0.380544 189.398 0.729042C189.756 1.07754 189.961 1.55367 189.968 2.05301M189.63 17.892H186.491V5.65001H189.63V17.892Z" fill="#1C1B22"/>
<path d="M196.391 2.67999L196.366 5.64999H199.166V8.49899H196.341L196.293 13.45C196.293 14.729 196.704 15.212 197.886 15.212C198.319 15.2183 198.75 15.1614 199.166 15.043V17.795C198.525 17.9935 197.856 18.0834 197.185 18.061C194.458 18.061 193.129 16.902 193.153 14.198L193.201 8.49799H191.201V5.64999H193.201L193.225 2.67999H196.391Z" fill="#1C1B22"/>
<path d="M212.255 5.65L205.955 23.084H202.695L204.554 17.747L200.207 5.647H203.588L205.979 13.156L206.22 14.219L206.462 13.156L208.853 5.647L212.255 5.65Z" fill="#1C1B22"/>
<path d="M228.646 7.17101C229.257 7.76406 229.736 8.47913 230.052 9.26964C230.368 10.0601 230.514 10.9083 230.48 11.759C230.514 12.6133 230.368 13.4651 230.052 14.2595C229.736 15.054 229.257 15.7733 228.646 16.371C227.39 17.5207 225.749 18.1584 224.046 18.1584C222.343 18.1584 220.702 17.5207 219.446 16.371C218.842 15.7688 218.37 15.0482 218.058 14.2545C217.746 13.4608 217.602 12.6111 217.635 11.759C217.602 10.9105 217.747 10.0645 218.058 9.27472C218.37 8.48491 218.843 7.76852 219.446 7.17101C220.702 6.0213 222.343 5.38364 224.046 5.38364C225.749 5.38364 227.39 6.0213 228.646 7.17101ZM221.764 9.24801C221.152 9.93754 220.832 10.8379 220.871 11.759C220.836 12.687 221.155 13.5936 221.764 14.295C222.052 14.6162 222.406 14.871 222.802 15.0419C223.198 15.2129 223.627 15.2958 224.058 15.285C224.502 15.2759 224.94 15.1756 225.343 14.9905C225.747 14.8053 226.108 14.5392 226.405 14.2085C226.701 13.8779 226.927 13.4899 227.067 13.0685C227.208 12.6472 227.26 12.2014 227.221 11.759C227.221 9.70701 225.965 8.23401 224.058 8.23401C223.624 8.22186 223.194 8.30648 222.797 8.48171C222.4 8.65693 222.047 8.91836 221.764 9.247" fill="#1C1B22"/>
<path d="M239.147 0.217009V3.01701C238.749 2.84844 238.323 2.75845 237.891 2.75201C236.804 2.75201 236.274 3.30701 236.274 4.44101V5.65001H239.074V8.50001H236.274V17.892H233.111V8.50001H231.18V5.65001H233.111V4.37101C233.111 1.50001 234.656 8.64927e-06 237.53 8.64927e-06C238.076 -0.00197021 238.62 0.0710443 239.147 0.217009Z" fill="#1C1B22"/>
<path d="M116.914 23.67L123.457 40.57H119.857L118.457 36.828H111.723L110.323 40.57H106.723L113.267 23.67H116.914ZM115.074 27.703L114.76 28.644L112.76 33.932H117.395L115.395 28.644L115.074 27.703Z" fill="#1C1B22"/>
<path d="M128.647 22.945H125.508V40.571H128.647V22.945Z" fill="#1C1B22"/>
<path d="M140.91 32.531V40.572H138.23L138.037 39.072C137.663 39.6502 137.141 40.1184 136.526 40.4284C135.911 40.7384 135.224 40.8791 134.537 40.836C134.054 40.8798 133.567 40.8202 133.109 40.6612C132.651 40.5022 132.233 40.2473 131.881 39.9137C131.529 39.58 131.252 39.1753 131.069 38.7263C130.886 38.2773 130.801 37.7945 130.819 37.31C130.819 35.064 132.219 34.026 134.61 33.64L137.773 33.06V32.606C137.773 31.375 137.193 30.747 136.059 30.747C135.83 30.723 135.599 30.7467 135.38 30.8167C135.161 30.8866 134.959 31.0012 134.786 31.1533C134.614 31.3053 134.474 31.4915 134.378 31.7001C134.281 31.9087 134.228 32.1351 134.223 32.365H131.181C131.21 31.7595 131.361 31.166 131.624 30.6197C131.886 30.0734 132.256 29.5853 132.711 29.1844C133.166 28.7835 133.696 28.4778 134.271 28.2855C134.846 28.0933 135.454 28.0183 136.058 28.065C139.051 28.065 140.91 29.609 140.91 32.531ZM137.77 35.163L135.331 35.67C134.413 35.8873 133.954 36.346 133.955 37.046C133.955 37.795 134.487 38.254 135.38 38.254C135.777 38.2663 136.169 38.169 136.514 37.9728C136.859 37.7766 137.144 37.4892 137.336 37.142C137.634 36.6564 137.785 36.0947 137.771 35.525L137.77 35.163Z" fill="#1C1B22"/>
<path d="M146.126 22.945V29.658C146.566 29.112 147.132 28.6814 147.776 28.4035C148.419 28.1255 149.121 28.0087 149.82 28.063C150.594 28.0454 151.362 28.2012 152.068 28.5189C152.775 28.8365 153.401 29.3081 153.901 29.899C154.994 31.1534 155.572 32.7751 155.518 34.438C155.564 36.1114 154.978 37.7407 153.876 39.001C153.379 39.5895 152.757 40.0597 152.055 40.3773C151.354 40.6949 150.59 40.852 149.82 40.837C149.062 40.8822 148.306 40.7301 147.625 40.3957C146.944 40.0613 146.361 39.556 145.933 38.929L145.692 40.571H143.012V22.945H146.126ZM147.019 31.927C146.708 32.251 146.465 32.6334 146.304 33.0521C146.142 33.4708 146.065 33.9174 146.078 34.366V34.51C146.056 34.965 146.126 35.4199 146.283 35.8473C146.441 36.2748 146.683 36.6661 146.995 36.998C147.277 37.2875 147.615 37.5161 147.989 37.6697C148.363 37.8233 148.764 37.8986 149.168 37.891C149.603 37.8825 150.031 37.7846 150.426 37.6033C150.821 37.422 151.175 37.1612 151.465 36.8372C151.755 36.5133 151.975 36.1331 152.112 35.7203C152.248 35.3075 152.298 34.871 152.259 34.438C152.294 34.0071 152.241 33.5736 152.102 33.1642C151.963 32.7547 151.743 32.3778 151.453 32.0567C151.164 31.7356 150.812 31.4771 150.419 31.2969C150.026 31.1167 149.6 31.0188 149.168 31.009C148.766 31.0082 148.369 31.0892 147.999 31.247C147.63 31.4049 147.296 31.6362 147.019 31.927Z" fill="#1C1B22"/>
<path d="M166.888 32.531V40.572H164.208L164.015 39.072C163.641 39.6502 163.119 40.1184 162.504 40.4284C161.889 40.7384 161.202 40.8791 160.515 40.836C160.032 40.88 159.545 40.8205 159.087 40.6615C158.629 40.5026 158.21 40.2477 157.858 39.9141C157.506 39.5804 157.229 39.1756 157.046 38.7266C156.863 38.2775 156.778 37.7946 156.796 37.31C156.796 35.064 158.196 34.026 160.587 33.64L163.75 33.06V32.606C163.75 31.375 163.17 30.747 162.036 30.747C161.807 30.723 161.576 30.7467 161.357 30.8167C161.138 30.8866 160.936 31.0012 160.763 31.1533C160.591 31.3053 160.451 31.4915 160.355 31.7001C160.258 31.9087 160.205 32.1351 160.2 32.365H157.156C157.185 31.7595 157.336 31.166 157.599 30.6197C157.861 30.0734 158.231 29.5853 158.686 29.1844C159.141 28.7835 159.671 28.4778 160.246 28.2855C160.821 28.0933 161.429 28.0183 162.033 28.065C165.026 28.065 166.885 29.61 166.885 32.532M163.746 35.164L161.307 35.671C160.389 35.8883 159.93 36.347 159.931 37.047C159.931 37.796 160.463 38.255 161.356 38.255C161.753 38.2673 162.145 38.17 162.49 37.9738C162.835 37.7776 163.12 37.4902 163.312 37.143C163.61 36.6574 163.761 36.0957 163.747 35.526L163.746 35.164Z" fill="#1C1B22"/>
<path d="M186.107 32.628V40.572H182.968V33.306C182.968 31.833 182.388 31.106 181.253 31.106C180.022 31.106 179.128 32.096 179.104 33.955V40.571H175.966V33.306C175.966 31.833 175.386 31.106 174.251 31.106C172.995 31.106 172.102 32.144 172.102 34.1V40.571H168.987V28.33H171.667L171.908 29.923C172.21 29.3282 172.68 28.835 173.259 28.5045C173.839 28.1741 174.502 28.0209 175.168 28.064C175.904 28.0028 176.641 28.1783 177.271 28.5651C177.9 28.9518 178.39 29.5295 178.668 30.214C178.988 29.5555 179.49 29.0028 180.116 28.6216C180.741 28.2404 181.462 28.0469 182.194 28.064C184.729 28.064 186.105 29.803 186.105 32.628" fill="#1C1B22"/>
<path d="M198.152 32.531V40.572H195.472L195.279 39.072C194.905 39.6502 194.383 40.1184 193.768 40.4284C193.153 40.7384 192.466 40.8791 191.779 40.836C191.296 40.8798 190.809 40.8202 190.351 40.6612C189.893 40.5022 189.475 40.2473 189.123 39.9137C188.771 39.58 188.494 39.1753 188.311 38.7263C188.128 38.2773 188.043 37.7945 188.061 37.31C188.061 35.064 189.461 34.026 191.852 33.64L195.015 33.06V32.606C195.015 31.375 194.435 30.747 193.301 30.747C193.072 30.723 192.841 30.7467 192.622 30.8167C192.403 30.8866 192.201 31.0012 192.028 31.1533C191.856 31.3053 191.716 31.4915 191.62 31.7001C191.523 31.9087 191.47 32.1351 191.465 32.365H188.422C188.451 31.7595 188.602 31.166 188.865 30.6197C189.127 30.0734 189.497 29.5853 189.952 29.1844C190.407 28.7835 190.937 28.4778 191.512 28.2855C192.087 28.0933 192.695 28.0183 193.299 28.065C196.292 28.065 198.151 29.61 198.151 32.532M195.012 35.164L192.573 35.671C191.655 35.8883 191.196 36.347 191.197 37.047C191.197 37.796 191.729 38.255 192.622 38.255C193.019 38.2673 193.411 38.17 193.756 37.9738C194.101 37.7776 194.386 37.4902 194.578 37.143C194.876 36.6574 195.027 36.0957 195.013 35.526L195.012 35.164Z" fill="#1C1B22"/>
<path d="M217.202 28.401H213.845C213.864 28.1243 213.825 27.8466 213.729 27.5863C213.633 27.326 213.483 27.0889 213.29 26.8905C213.096 26.6922 212.862 26.5371 212.604 26.4355C212.346 26.3339 212.069 26.2881 211.792 26.301C211.542 26.2698 211.289 26.2945 211.05 26.3731C210.811 26.4518 210.592 26.5825 210.41 26.7558C210.228 26.9292 210.086 27.1408 209.996 27.3755C209.905 27.6102 209.867 27.8621 209.886 28.113C209.872 28.3723 209.921 28.6312 210.031 28.8668C210.14 29.1024 210.306 29.3075 210.513 29.464C211.245 29.9169 212.031 30.2742 212.854 30.527C216.405 31.709 217.732 33.182 217.732 35.767C217.766 36.474 217.641 37.1796 217.366 37.8316C217.09 38.4835 216.671 39.0651 216.14 39.533C215.006 40.4627 213.571 40.9442 212.106 40.886C208.339 40.886 206.239 38.713 206.142 35.405H209.498C209.466 35.7576 209.514 36.1128 209.638 36.4445C209.762 36.7762 209.958 37.0759 210.213 37.3216C210.468 37.5672 210.775 37.7525 211.111 37.8639C211.447 37.9753 211.804 38.0098 212.155 37.965C213.531 37.965 214.376 37.192 214.376 36.057C214.376 34.922 213.531 34.27 211.383 33.569C208.099 32.507 206.529 31.106 206.529 28.402C206.505 27.7292 206.619 27.0586 206.864 26.4316C207.109 25.8045 207.48 25.2343 207.954 24.756C208.48 24.2742 209.097 23.9021 209.768 23.6617C210.44 23.4213 211.153 23.3174 211.865 23.356C215.077 23.356 217.081 25.118 217.203 28.402" fill="#1C1B22"/>
<path d="M230.793 28.329L224.493 45.763H221.233L223.092 40.426L218.745 28.326H222.126L224.517 35.835L224.758 36.898L225 35.835L227.391 28.326L230.793 28.329Z" fill="#1C1B22"/>
<path d="M240.667 31.928H237.552C237.574 31.7388 237.553 31.5469 237.491 31.3669C237.429 31.1869 237.326 31.0234 237.191 30.8887C237.057 30.7539 236.893 30.6515 236.713 30.589C236.533 30.5265 236.341 30.5057 236.152 30.528C235.283 30.528 234.801 30.986 234.801 31.735C234.801 32.508 235.283 32.845 236.95 33.135C239.85 33.618 240.934 34.802 240.934 36.854C240.934 39.486 238.934 40.838 236.201 40.838C233.231 40.838 231.493 39.293 231.421 36.854H234.512C234.536 37.844 235.139 38.354 236.274 38.354C237.239 38.354 237.794 37.944 237.794 37.195C237.794 36.395 237.311 35.988 235.573 35.674C232.893 35.216 231.661 34.057 231.661 32.052C231.645 31.524 231.743 30.9989 231.947 30.5118C232.151 30.0247 232.458 29.5869 232.845 29.228C233.296 28.8243 233.823 28.5139 234.395 28.3148C234.967 28.1157 235.573 28.0318 236.177 28.068C238.76 28.068 240.571 29.614 240.668 31.932" fill="#1C1B22"/>
<path d="M246.799 25.36L246.774 28.33H249.574V31.179H246.75L246.702 36.13C246.702 37.409 247.113 37.892 248.295 37.892C248.727 37.8983 249.158 37.8414 249.574 37.723V40.475C248.933 40.6737 248.264 40.7636 247.594 40.741C244.867 40.741 243.538 39.582 243.562 36.878L243.609 31.178H241.609V28.33H243.609L243.634 25.36H246.799Z" fill="#1C1B22"/>
<path d="M262.464 34.438V35.406H253.94C253.944 35.783 254.024 36.1553 254.175 36.5004C254.327 36.8455 254.548 37.1561 254.823 37.4135C255.099 37.6708 255.424 37.8695 255.778 37.9975C256.133 38.1255 256.51 38.1801 256.886 38.158C257.396 38.2233 257.913 38.1193 258.358 37.8618C258.803 37.6043 259.151 37.2077 259.349 36.733H262.392C262.094 37.968 261.368 39.0575 260.342 39.808C259.317 40.5586 258.059 40.9217 256.792 40.833C255.975 40.8646 255.161 40.7263 254.4 40.427C253.639 40.1276 252.949 39.6737 252.373 39.094C251.231 37.8274 250.633 36.1627 250.707 34.459C250.673 33.6206 250.804 32.7837 251.094 31.9964C251.384 31.209 251.827 30.4867 252.397 29.871C252.957 29.2726 253.64 28.8012 254.398 28.4888C255.156 28.1764 255.972 28.0302 256.791 28.06C260.17 28.06 262.466 30.26 262.466 34.434M259.303 33.227C259.32 32.8841 259.265 32.5414 259.141 32.2212C259.017 31.9011 258.827 31.6108 258.583 31.3692C258.339 31.1276 258.047 30.9401 257.725 30.8191C257.404 30.6982 257.061 30.6463 256.718 30.667C256.015 30.6472 255.333 30.9045 254.818 31.3835C254.303 31.8624 253.998 32.5246 253.967 33.227H259.303Z" fill="#1C1B22"/>
<path d="M281.227 32.628V40.572H278.089V33.306C278.089 31.833 277.509 31.106 276.374 31.106C275.143 31.106 274.25 32.096 274.225 33.955V40.571H271.086V33.306C271.086 31.833 270.506 31.106 269.371 31.106C268.117 31.106 267.222 32.144 267.222 34.1V40.571H264.107V28.33H266.787L267.029 29.923C267.331 29.3281 267.8 28.8349 268.38 28.5045C268.959 28.174 269.622 28.0209 270.288 28.064C271.024 28.0026 271.761 28.1781 272.391 28.5649C273.02 28.9516 273.51 29.5294 273.788 30.214C274.108 29.5556 274.611 29.0029 275.236 28.6218C275.861 28.2406 276.582 28.047 277.314 28.064C279.849 28.064 281.225 29.803 281.225 32.628" fill="#1C1B22"/>
<path d="M20.557 9.94599C20.6072 10.3932 20.5576 10.8459 20.4119 11.2716C20.2662 11.6973 20.028 12.0855 19.7143 12.4081C19.4007 12.7308 19.0194 12.9799 18.598 13.1375C18.1766 13.2952 17.7254 13.3575 17.277 13.32H15.527V17.955H14.156V6.76099H17.246C17.6819 6.71209 18.1231 6.7598 18.5384 6.90073C18.9538 7.04166 19.3329 7.27235 19.649 7.5764C19.9651 7.88045 20.2103 8.2504 20.3673 8.65994C20.5242 9.06949 20.589 9.50858 20.557 9.94599ZM19.075 9.94599C19.116 9.67456 19.0955 9.39737 19.0149 9.13495C18.9343 8.87253 18.7958 8.63158 18.6095 8.42994C18.4232 8.2283 18.194 8.07112 17.9388 7.97004C17.6835 7.86896 17.4088 7.82657 17.135 7.84599H15.527V12.213H17.15C18.365 12.213 19.074 11.424 19.074 9.94299" fill="#1C1B22"/>
<path d="M26.893 14.708H23.393L22.493 17.955H21.093L24.371 6.763H25.9L29.2 17.955H27.8L26.893 14.708ZM26.578 13.573L25.411 9.411C25.318 9.001 25.239 8.591 25.159 8.134H25.128C25.048 8.591 24.97 9.001 24.875 9.411L23.708 13.572L26.578 13.573Z" fill="#1C1B22"/>
<path d="M34.601 13.194H32.901V17.954H31.527V6.76099H34.712C37.171 6.76099 37.991 8.10199 37.991 9.96099C38.0561 10.6105 37.8957 11.2626 37.5368 11.8078C37.1779 12.3529 36.6423 12.758 36.02 12.955L38.307 17.955H36.761L34.601 13.194ZM32.901 12.121H34.617C35.988 12.121 36.508 11.269 36.508 9.96199C36.508 8.60599 35.988 7.86199 34.6 7.86199H32.9L32.901 12.121Z" fill="#1C1B22"/>
<path d="M46.409 7.96001H43.54V17.954H42.168V7.96001H39.284V6.76001H46.409V7.96001Z" fill="#1C1B22"/>
<path d="M0 29.683C0 25.647 1.419 23.803 4.036 23.803C6.653 23.803 8.071 25.647 8.071 29.683C8.071 33.719 6.652 35.563 4.036 35.563C1.42 35.563 0 33.719 0 29.683ZM6.605 29.683C6.605 26.372 5.691 24.983 4.036 24.983C2.381 24.983 1.467 26.37 1.467 29.683C1.467 32.996 2.38 34.383 4.036 34.383C5.692 34.383 6.605 32.996 6.605 29.683Z" fill="#1C1B22"/>
<path d="M12.202 25.285V28.958H16.202V30.124H12.202V35.298H10.83V24.098H16.474V25.28L12.202 25.285Z" fill="#1C1B22"/>
<path d="M27.933 25.298H25.064V35.298H23.692V25.298H20.808V24.098H27.933V25.298Z" fill="#1C1B22"/>
<path d="M37.487 35.298H36.115V30.128H31.828V35.298H30.456V24.098H31.827V28.986H36.114V24.098H37.487V35.298Z" fill="#1C1B22"/>
<path d="M46.613 34.113V35.298H40.859V24.098H46.502V25.28H42.231V28.958H46.231V30.124H42.231V34.113H46.613Z" fill="#1C1B22"/>
<path d="M283.069 39.193C283.069 38.8596 283.168 38.5338 283.354 38.2567C283.539 37.9796 283.802 37.7636 284.11 37.6361C284.418 37.5087 284.757 37.4754 285.084 37.5404C285.411 37.6055 285.711 37.7661 285.947 38.0018C286.183 38.2375 286.343 38.5379 286.409 38.8648C286.474 39.1918 286.44 39.5307 286.313 39.8387C286.185 40.1468 285.969 40.4101 285.692 40.5954C285.415 40.7808 285.089 40.8798 284.756 40.88C284.534 40.8805 284.315 40.8372 284.11 40.7527C283.905 40.6681 283.719 40.5438 283.562 40.3871C283.405 40.2303 283.281 40.0441 283.196 39.8392C283.112 39.6343 283.068 39.4147 283.069 39.193ZM283.292 39.193C283.291 39.4815 283.376 39.7638 283.536 40.0041C283.695 40.2445 283.923 40.4321 284.189 40.5433C284.455 40.6545 284.748 40.6842 285.031 40.6288C285.314 40.5734 285.575 40.4352 285.779 40.2318C285.984 40.0284 286.124 39.769 286.181 39.4862C286.238 39.2034 286.21 38.91 286.101 38.643C285.991 38.3761 285.805 38.1477 285.566 37.9866C285.326 37.8255 285.045 37.739 284.756 37.738C284.369 37.7382 283.999 37.8913 283.724 38.1639C283.45 38.4364 283.295 38.8064 283.292 39.193ZM284.715 39.4H284.365V40.164H284.111V38.231H284.898C284.977 38.2269 285.057 38.2391 285.132 38.2669C285.206 38.2947 285.274 38.3374 285.332 38.3925C285.389 38.4476 285.435 38.5138 285.465 38.5872C285.496 38.6605 285.512 38.7394 285.511 38.819C285.514 38.9586 285.465 39.0944 285.374 39.2002C285.283 39.3059 285.156 39.3743 285.017 39.392L285.534 40.163H285.215L284.715 39.4ZM284.365 38.454V39.17H284.898C284.944 39.1709 284.99 39.1625 285.033 39.1453C285.076 39.128 285.115 39.1023 285.148 39.0696C285.18 39.0369 285.206 38.9979 285.223 38.9551C285.241 38.9122 285.249 38.8662 285.248 38.82C285.251 38.7726 285.243 38.7252 285.227 38.6807C285.211 38.6361 285.185 38.5955 285.152 38.5612C285.12 38.5268 285.08 38.4996 285.036 38.4812C284.993 38.4628 284.945 38.4535 284.898 38.454H284.365Z" fill="#231F20"/>
</g>
</svg>
